<?xml version="1.0" standalone="no"?>
<!DOCTYPE svg PUBLIC "-//W3C//DTD SVG 20010904//EN"
 "http://www.w3.org/TR/2001/REC-SVG-20010904/DTD/svg10.dtd">
<svg version="1.0" xmlns="http://www.w3.org/2000/svg"
 width="1587.000000pt" height="2245.000000pt" viewBox="0 0 1587.000000 2245.000000"
 preserveAspectRatio="xMidYMid meet">
<metadata>
Created by potrace 1.16, written by Peter Selinger 2001-2019
</metadata>
<g transform="translate(0.000000,2245.000000) scale(0.100000,-0.100000)"
fill="#000000" stroke="none">
<path d="M8110 15115 c-7 -8 -18 -15 -25 -15 -7 0 -20 -11 -29 -25 -9 -14 -23
-25 -30 -25 -7 0 -16 -13 -19 -29 -3 -16 -18 -41 -32 -56 -14 -16 -25 -34 -25
-41 0 -7 -8 -19 -19 -26 -10 -7 -22 -29 -26 -48 -4 -19 -18 -47 -30 -62 -12
-14 -25 -44 -28 -66 -4 -21 -15 -50 -25 -63 -14 -17 -21 -49 -26 -114 -4 -57
-14 -105 -26 -130 -29 -59 -28 -223 0 -288 11 -25 23 -79 26 -124 4 -53 12
-87 25 -105 11 -15 22 -48 26 -73 4 -29 12 -49 24 -56 10 -5 21 -25 25 -44 3
-19 17 -46 30 -60 13 -14 27 -37 30 -51 4 -14 17 -36 29 -48 12 -12 24 -27 26
-33 2 -6 16 -14 30 -18 22 -5 28 -2 38 24 7 16 19 32 26 35 8 3 17 21 21 41 3
20 17 48 30 62 13 14 24 37 24 50 0 30 26 93 38 93 5 0 13 36 16 79 4 46 15
95 27 117 10 21 21 54 25 73 3 20 12 55 21 79 19 54 37 44 53 -31 15 -72 24
-380 13 -449 -8 -44 -7 -58 2 -58 7 0 15 18 18 41 3 26 13 46 26 56 13 9 21
25 21 44 0 19 9 38 25 53 15 14 25 34 25 52 0 46 19 103 38 113 15 9 17 36 17
290 0 273 -1 280 -21 300 -16 14 -24 38 -29 81 -5 45 -13 68 -31 85 -16 16
-24 35 -24 59 0 25 -6 38 -20 46 -10 6 -24 27 -29 48 -6 20 -20 43 -31 50 -11
7 -20 19 -20 28 0 9 -12 28 -27 43 -16 16 -38 40 -50 55 -43 52 -126 74 -153
41z"/>
<path d="M7203 14520 c-20 -8 -23 -17 -24 -72 0 -35 -1 -90 -1 -123 -1 -33 -1
-99 0 -146 2 -77 4 -87 22 -92 14 -4 21 -17 26 -47 5 -31 13 -44 30 -51 14 -5
24 -17 24 -27 0 -25 87 -118 123 -131 15 -6 27 -17 27 -25 0 -7 14 -16 30 -19
18 -4 30 -13 30 -22 0 -14 3 -14 29 1 26 15 30 24 34 73 5 62 9 80 20 99 5 7
5 21 2 32 -4 13 -2 20 7 20 11 0 11 2 0 9 -8 4 -12 14 -11 22 2 8 -2 24 -9 36
-7 12 -12 26 -11 30 1 4 1 33 0 64 -1 49 -4 57 -26 67 -21 10 -25 18 -25 56 0
39 -3 45 -22 48 -15 2 -24 11 -26 25 -2 12 -12 25 -22 28 -10 3 -22 15 -25 25
-3 10 -14 22 -25 25 -10 3 -25 17 -34 30 -9 14 -23 25 -31 25 -7 0 -16 9 -20
19 -9 28 -51 37 -92 21z"/>
<path d="M9023 14523 c-12 -2 -25 -13 -28 -24 -4 -10 -13 -19 -22 -19 -17 0
-76 -58 -79 -79 -3 -17 -25 -32 -36 -25 -4 3 -8 -6 -8 -21 0 -18 -7 -28 -24
-34 -21 -9 -42 -57 -37 -84 1 -5 -7 -11 -17 -14 -16 -4 -20 -18 -26 -81 -3
-42 -10 -78 -15 -81 -16 -11 -20 -91 -5 -121 9 -16 18 -62 21 -102 4 -49 11
-77 22 -85 22 -17 31 -16 31 2 0 17 38 35 75 35 17 0 25 6 27 23 2 16 11 23
31 25 21 3 27 9 27 28 0 19 5 24 24 24 20 0 24 6 30 40 4 24 14 45 26 52 11 7
20 23 20 36 0 15 8 26 25 32 22 8 25 15 26 62 1 93 11 133 37 136 19 3 22 9
22 48 0 24 -5 44 -11 44 -15 0 -39 64 -47 128 -7 53 -8 56 -37 58 -16 1 -40 0
-52 -3z"/>
</g>
</svg>
